<?xml version="1.0" encoding="UTF-8"?>
<svg width="68px" height="64px" viewBox="0 0 68 64" version="1.1" xmlns="http://www.w3.org/2000/svg" xmlns:xlink="http://www.w3.org/1999/xlink">
    <title>“</title>
    <g id="Page-1" stroke="none" stroke-width="1" fill="none" fill-rule="evenodd">
        <g id="quote-marks" transform="translate(0.000000, -1.000000)" fill="#FF671F" fill-rule="nonzero">
            <path d="M26.5839844,64.5683594 L26.5839844,37.9570312 L13.2783203,37.9570312 C13.1969401,36.9804688 13.1359049,36.3497721 13.0952148,36.0649414 C13.0545247,35.7801107 13.0341797,35.4342448 13.0341797,35.0273438 C13.0341797,31.609375 13.6038411,28.1507161 14.7431641,24.6513672 C17.0218099,17.5712891 20.96875,13.5022786 26.5839844,12.4443359 L26.5839844,12.4443359 L26.5839844,0.9697266 C18.8528646,1.9462891 12.5865885,5.6897786 7.78515625,12.2001953 C2.98372396,18.710612 0.58300781,27.9879557 0.58300781,40.0322266 L0.58300781,40.0322266 L0.58300781,64.5683594 L26.5839844,64.5683594 Z M67.7216797,64.5683594 L67.7216797,37.9570312 L54.4160156,37.9570312 C54.2532552,37.3873698 54.1515299,36.8583984 54.1108398,36.3701172 C54.0701497,35.8818359 54.0498047,35.3935547 54.0498047,34.9052734 C54.0498047,29.2900391 55.2094727,24.3258464 57.5288086,20.0126953 C59.8481445,15.6995443 63.2457682,13.1767578 67.7216797,12.4443359 L67.7216797,12.4443359 L67.7216797,0.9697266 C58.4443359,2.1090495 51.7711589,6.4832357 47.7021484,14.0922852 C43.633138,21.7013346 41.5986328,30.3479818 41.5986328,40.0322266 L41.5986328,40.0322266 L41.5986328,64.5683594 L67.7216797,64.5683594 Z" id="“"></path>
        </g>
    </g>
</svg>